<?xml version="1.0" standalone="no"?><!DOCTYPE svg PUBLIC "-//W3C//DTD SVG 1.1//EN" "http://www.w3.org/Graphics/SVG/1.1/DTD/svg11.dtd"><svg t="1740373783988" class="icon" viewBox="0 0 1024 1024" version="1.1" xmlns="http://www.w3.org/2000/svg" p-id="2606" xmlns:xlink="http://www.w3.org/1999/xlink" width="200" height="200"><path d="M512 96C335.552 96 192 239.552 192 416s143.552 320 320 320 320-143.552 320-320S688.448 96 512 96z m0 64c141.152 0 256 114.848 256 256s-114.848 256-256 256-256-114.848-256-256 114.848-256 256-256z m-32 64v38.08a98.432 98.432 0 0 0-53.568 46.848 93.376 93.376 0 0 0-8.448 62.24 97.952 97.952 0 0 0 26.304 48.512c8.736 8.736 19.136 15.808 30.592 20.704 11.456 4.896 24 7.616 37.12 7.616 4.544 0 8.832 0.864 12.672 2.432a30.752 30.752 0 0 1 16.896 16.896c1.568 3.84 2.432 8.128 2.432 12.672a31.232 31.232 0 0 1-19.328 29.568c-3.84 1.568-8.128 2.432-12.672 2.432-4.576 0-8.832-0.864-12.672-2.432a30.752 30.752 0 0 1-10.144-6.752A31.872 31.872 0 0 1 480 480h-64a94.208 94.208 0 0 0 27.424 66.432 97.984 97.984 0 0 0 36.576 23.52V608h64v-38.08a96.768 96.768 0 0 0 62.72-74.72 94.208 94.208 0 0 0-15.296-68.64 97.952 97.952 0 0 0-25.984-25.984 96.864 96.864 0 0 0-34.24-14.592A94.08 94.08 0 0 0 512 384c-4.576 0-8.832-0.864-12.672-2.432a30.752 30.752 0 0 1-16.896-16.896A33.408 33.408 0 0 1 480 352c0-4.576 0.864-8.832 2.432-12.672a30.752 30.752 0 0 1 16.896-16.896c3.84-1.568 8.128-2.432 12.672-2.432 18.24 0 32 13.76 32 32h64a94.208 94.208 0 0 0-4.736-29.568A97.472 97.472 0 0 0 544 262.08V224h-64zM64 672v256h64v-192h172.16a386.976 386.976 0 0 1-73.6-64H64z m733.44 0a386.976 386.976 0 0 1-73.6 64H896v192h64v-256h-162.56zM192 800v64h640v-64H192z" p-id="2607"></path></svg>